HIERARCHY
ROOT HipCenter
{
    OFFSET 0.0 0.0 -0.0
    CHANNELS 6 Xposition Yposition Zposition Zrotation Xrotation Yrotation
    JOINT Spine
    {
        OFFSET 0.0 12.242378234863281 0.0
        CHANNELS 3 Zrotation Xrotation Yrotation
        JOINT ShoulderCenter
        {
            OFFSET 0.0 34.95833206176758 0.0
            CHANNELS 3 Zrotation Xrotation Yrotation
            JOINT LeftShoulder
            {
                OFFSET 18.581157684326172 0.0 0.0
                CHANNELS 3 Zrotation Xrotation Yrotation
                JOINT LeftElbow
                {
                    OFFSET 29.718015670776367 0.0 0.0
                    CHANNELS 3 Zrotation Xrotation Yrotation
                    JOINT LeftWrist
                    {
                        OFFSET 30.156982421875 0.0 0.0
                        CHANNELS 3 Zrotation Xrotation Yrotation
                        JOINT LeftHand
                        {
                            OFFSET 4.085371971130371 0.0 0.0
                            CHANNELS 3 Zrotation Xrotation Yrotation
                            End Site
                            {
                                OFFSET 1.6341485977172852 0.0 0.0
                            }
                        }
                    }
                }
            }
            JOINT RightShoulder
            {
                OFFSET -18.581157684326172 0.0 0.0
                CHANNELS 3 Zrotation Xrotation Yrotation
                JOINT RightElbow
                {
                    OFFSET -29.718015670776367 0.0 0.0
                    CHANNELS 3 Zrotation Xrotation Yrotation
                    JOINT RightWrist
                    {
                        OFFSET -30.156982421875 0.0 0.0
                        CHANNELS 3 Zrotation Xrotation Yrotation
                        JOINT RightHand
                        {
                            OFFSET -4.085371971130371 0.0 0.0
                            CHANNELS 3 Zrotation Xrotation Yrotation
                            End Site
                            {
                                OFFSET -1.6341485977172852 0.0 0.0
                            }
                        }
                    }
                }
            }
            End Site
            {
                OFFSET 0.0 13.983333587646484 0.0
            }
        }
    }
    JOINT LeftHip
    {
        OFFSET 15.674623489379883 0.0 0.0
        CHANNELS 3 Zrotation Xrotation Yrotation
        JOINT LeftKnee
        {
            OFFSET 0.0 -41.611083984375 0.0
            CHANNELS 3 Zrotation Xrotation Yrotation
            JOINT LeftAnkle
            {
                OFFSET 0.0 -41.74882125854492 0.0
                CHANNELS 3 Zrotation Xrotation Yrotation
                JOINT LeftFoot
                {
                    OFFSET 0.0 -9.87154769897461 0.0
                    CHANNELS 3 Zrotation Xrotation Yrotation
                    End Site
                    {
                        OFFSET 0.0 0.0 3.9486193656921387
                    }
                }
            }
        }
    }
    JOINT RightHip
    {
        OFFSET -15.674623489379883 0.0 0.0
        CHANNELS 3 Zrotation Xrotation Yrotation
        JOINT RightKnee
        {
            OFFSET 0.0 -41.611083984375 0.0
            CHANNELS 3 Zrotation Xrotation Yrotation
            JOINT RightAnkle
            {
                OFFSET 0.0 -41.74882125854492 0.0
                CHANNELS 3 Zrotation Xrotation Yrotation
                JOINT RightFoot
                {
                    OFFSET 0.0 -9.87154769897461 0.0
                    CHANNELS 3 Zrotation Xrotation Yrotation
                    End Site
                    {
                        OFFSET 0.0 0.0 3.9486193656921387
                    }
                }
            }
        }
    }
}
MOTION
Frames: 5
Frame Time: 0.03333333333333333
27.000001907348633 -0.7000000476837158 9.399999618530273 -2.346865472487797 -1.8763017080395894 91.29844282698653 2.7865368784156392 -3.395293424236153 0.10449062927732959 -8.636044979994135e-09 -1.1384841697095727e-07 -0.10637879843952026 94.53646921296385 2.4118433655680853 170.2060394998896 5.481864224463657e-06 -3.07492665458656e-06 33.20904585620595 179.99999604144472 -19.223465474992096 -119.23561639519323 0.0 0.0 7.951386703658792e-15 -98.73870220144742 1.644149834518752 -170.28374158410273 -2.6132204369425556e-06 -2.485887089895871e-06 -34.55564607053116 -3.0076207999533254e-06 -8.898963473313264 -26.955751145661676 -1.5902773407317588e-15 -6.3611093629270335e-15 -6.3611093629270335e-15 -0.3279901548262185 -11.237749932007443 -16.39053126093507 1.875103809042579 26.907314646047883 -24.9570463766568 88.65634492964028 -54.881896296252556 134.09446581747477 1.5902773407317584e-15 3.1805546814635168e-15 -4.4139062980501586e-32 4.317201028322896 -2.859895526623009 21.945439154032577 4.210827896775077 18.475412621540645 11.899971117100415 -83.65304989180002 -32.15157215269682 -131.6573555174219 0.0 1.5902773407317584e-15 0.0
26.899999618530273 -0.7000000476837158 9.399999618530273 -2.8155586209482486 -1.875610568158887 91.55741374082459 2.7538657878209922 -4.040324822243406 0.12374249269791483 -7.344693666189258e-08 1.0094671467917147e-07 -0.531518193350071 94.48234564592555 2.1819289249705167 170.0328521196105 4.486300064899889e-06 2.3996394532683667e-07 33.806656190931264 -179.9999986639249 -20.15096082340417 -119.44235934269147 -6.3611093629270335e-15 6.3611093629270335e-15 -1.590277340731758e-15 -98.87429489125866 1.1129226005385335 -169.5737125740351 -1.0762943795427275e-06 -3.009865430032083e-06 -34.872235954867136 -1.6811922203671308e-06 -9.247132673476965 -27.20800809401337 0.0 0.0 -6.3611093629270335e-15 -0.40067074870750274 -11.838858281705624 -16.548914497482137 1.9447672900102977 26.905405804203905 -25.035555877463842 88.11338176297873 -55.008504730709255 133.5793103895671 -3.1805546814635168e-15 -3.1805546814635168e-15 -3.1805546814635168e-15 4.2919107530138785 -3.347444466690482 22.125406412696297 4.27672866320482 18.618132579822987 11.91950632820337 -83.97260951163508 -32.47696877395179 -131.5936972192093 -6.3611093629270335e-15 -6.3611093629270335e-15 3.1805546814635164e-15
26.899999618530273 -0.800000011920929 9.5 -2.792704056124596 -1.860413078100754 91.55776186127149 2.739245767552264 -4.017085012532268 0.12302589052077946 -1.9417496131421436e-07 4.696646479152552e-08 -0.680807287641067 94.46530555427655 2.4021930439186465 170.23973531740026 -5.356357482025736e-06 5.054661636548272e-06 34.098735577443556 -179.99999737616807 -18.49019268734509 -119.05348069511014 0.0 0.0 1.5902773407317584e-15 -98.87553197334466 0.9633512364996878 -169.02525445908768 5.23382131892192e-07 -1.879704252235478e-06 -35.2736090203146 -2.9361472715369433e-06 -6.445661341224985 -25.530195073494255 0.0 6.3611093629270335e-15 0.0 -0.4098011554864993 -11.794429731040365 -16.521441468019088 1.9265033249859833 27.052804405544354 -24.7316526574675 88.61698534566908 -54.70209607509954 133.6899527129342 1.5902773407317584e-15 3.1805546814635168e-15 -3.1805546814635168e-15 4.277261273461501 -3.3242321933503383 22.318186100584708 4.472549799290831 18.546653741861444 11.763778406505695 -84.0804219737243 -31.848893936901465 -131.93969518088673 0.0 0.0 0.0
26.899999618530273 -0.800000011920929 9.5 -2.32781505015977 -1.861087836924938 91.55759075500131 2.7564438137832528 -3.3883999953737085 0.10378626109398623 1.1915052010519074e-07 -4.390611911572775e-08 -0.6710968194654688 94.39506662079042 2.059321577886723 170.40560145322067 -1.195618026410488e-06 -2.5122361729582786e-06 34.69756683259222 -179.99999987729785 -18.193871499647184 -118.42050613248878 -3.1805546814635168e-15 6.3611093629270335e-15 -3.1805546814635168e-15 -98.94112576849633 1.1733793053911008 -168.77332004819547 -6.148163000247243e-07 3.7156833947327905e-08 -35.175824623288136 1.6407024298458162e-06 -8.84745847280161 -26.038271430292845 -3.1805546814635168e-15 8.827812596100317e-32 -3.1805546814635168e-15 -0.3887205618310888 -11.195827278802657 -16.624599670005804 1.935028076180598 26.79917478894466 -24.5227875189417 88.38495097825229 -54.7831266083146 133.50941853384262 1.5902773407317584e-15 3.1805546814635168e-15 -3.1805546814635168e-15 4.431942585038066 -2.724529745270533 22.17733531196136 4.187472277513542 18.367649301225704 11.608676381468314 -83.91802468914835 -32.150223977956806 -131.40337291883998 -6.3611093629270335e-15 1.5902773407317582e-15 3.1805546814635168e-15
26.80000114440918 -0.800000011920929 9.5 -2.7926950507550714 -1.860412917175892 91.54456597308133 2.7401710938155515 -4.016448026146654 0.1417197764366705 -3.354088669340664e-08 2.7161169609120413e-08 -0.8398252002568521 94.48920524941184 1.5660134278908653 170.23937218321387 -3.6479456295511737e-06 4.688538538353306e-06 35.11380241237127 179.9999996708845 -17.613323551094847 -117.95438337748453 0.0 0.0 0.0 -99.0642371454802 1.610568687009031 -168.6318414667056 -3.5981790820235503e-06 4.7227028874616834e-07 -34.39531594990309 5.822159020589501e-07 -7.147926374602274 -25.752825215979744 1.7655625192200634e-31 6.3611093629270335e-15 -3.1805546814635168e-15 -0.41236252157531034 -11.8157055342542 -16.534831055794424 2.1014515862264718 26.9783203007716 -25.211232008578968 88.41487835279189 -54.279870118677486 134.24598293606164 1.5902773407317584e-15 3.1805546814635164e-15 -3.1805546814635164e-15 4.4234027168308225 -3.327790214786273 22.111631313197737 4.191440157631672 18.465737959757426 11.686849557424576 -83.87118138128828 -32.16796719814666 -131.3586709470747 -6.3611093629270335e-15 1.5902773407317582e-15 3.1805546814635168e-15
